<?xml version="1.0" standalone="no"?>
<!DOCTYPE svg PUBLIC "-//W3C//DTD SVG 20010904//EN"
 "http://www.w3.org/TR/2001/REC-SVG-20010904/DTD/svg10.dtd">
<svg version="1.0" xmlns="http://www.w3.org/2000/svg"
 width="1439.000000pt" height="980.000000pt" viewBox="0 0 1439.000000 980.000000"
 preserveAspectRatio="xMidYMid meet">

<g transform="translate(0.000000,980.000000) scale(0.100000,-0.100000)"
fill="#000000" stroke="none">
<path d="M6980 7636 c0 -2 8 -10 18 -17 15 -13 16 -12 3 4 -13 16 -21 21 -21
13z"/>
<path d="M7067 7569 c7 -7 15 -10 18 -7 3 3 -2 9 -12 12 -14 6 -15 5 -6 -5z"/>
<path d="M7110 7536 c0 -2 7 -7 16 -10 8 -3 12 -2 9 4 -6 10 -25 14 -25 6z"/>
<path d="M7221 7457 c2 -1 13 -9 24 -17 19 -14 19 -14 6 3 -7 9 -18 17 -24 17
-6 0 -8 -1 -6 -3z"/>
<path d="M7316 7387 c3 -8 15 -19 27 -25 12 -7 33 -19 47 -29 35 -23 13 -3
-38 36 -23 18 -40 26 -36 18z"/>
<path d="M7479 7266 c8 -9 24 -22 35 -28 19 -10 20 -10 7 6 -8 9 -24 22 -35
28 -19 10 -20 10 -7 -6z"/>
<path d="M7548 7184 c9 -7 18 -8 20 -3 2 5 12 5 23 -2 11 -5 16 -15 13 -21 -5
-7 -2 -8 5 -4 7 5 20 2 30 -6 9 -7 3 1 -16 18 -21 20 -43 31 -62 31 -27 0 -28
-2 -13 -13z"/>
<path d="M7527 7169 c7 -7 15 -10 18 -7 3 3 -2 9 -12 12 -14 6 -15 5 -6 -5z"/>
<path d="M7670 7121 c0 -6 3 -11 8 -11 4 0 18 -9 31 -19 21 -16 22 -20 10 -39
-19 -30 -2 -43 57 -46 54 -2 78 -12 68 -28 -4 -6 -3 -8 3 -5 15 10 78 -42 75
-61 -2 -14 -1 -15 7 -2 9 13 13 12 29 -6 19 -20 19 -21 0 -33 -11 -7 -17 -15
-14 -18 3 -3 12 0 21 7 9 7 19 10 22 6 4 -4 1 -12 -7 -17 -12 -9 -12 -10 3 -5
10 3 20 6 23 6 2 0 0 8 -3 17 -6 15 -5 16 9 3 13 -13 14 -16 2 -23 -8 -4 -14
-13 -14 -19 0 -7 7 -5 18 4 17 16 42 14 42 -3 0 -5 -6 -9 -14 -9 -8 0 -16 -7
-20 -15 -5 -15 8 -19 46 -16 12 2 16 -3 12 -13 -6 -16 40 -45 66 -41 10 2 16
-6 16 -21 1 -15 -4 -24 -12 -24 -8 0 -14 -5 -14 -11 0 -5 -4 -7 -10 -4 -5 3
-10 -3 -10 -14 0 -12 6 -21 13 -21 8 0 7 -4 -3 -10 -12 -8 -12 -10 -1 -10 10
0 11 -3 2 -13 -6 -8 -8 -17 -4 -20 3 -4 1 -7 -4 -7 -6 0 -13 5 -15 11 -2 5
-10 11 -19 12 -26 4 -80 48 -72 59 4 8 0 9 -11 5 -10 -4 -15 -3 -11 3 8 13 -3
50 -15 50 -4 0 -7 -7 -6 -16 2 -25 -21 -28 -27 -4 -3 12 -11 18 -20 14 -11 -4
-13 1 -9 22 4 24 3 25 -17 15 -12 -7 -27 -9 -34 -6 -6 4 2 -5 18 -19 17 -14
33 -26 37 -26 4 0 20 -12 35 -26 15 -15 53 -42 83 -61 30 -19 78 -53 107 -75
31 -23 57 -37 64 -32 7 4 9 3 5 -4 -4 -6 17 -28 50 -53 l56 -41 34 18 c19 10
34 24 34 31 0 7 6 13 13 13 8 0 22 9 31 19 10 11 29 22 43 25 25 7 25 7 -13
32 -26 18 -39 22 -44 14 -5 -9 -9 -9 -14 -1 -4 6 -2 11 5 11 20 0 -7 24 -96
88 -63 45 -87 57 -94 48 -7 -8 -4 -16 10 -24 11 -7 24 -10 28 -8 5 3 16 -3 26
-14 16 -18 16 -20 2 -20 -9 0 -19 5 -22 10 -11 17 -25 11 -18 -7 6 -16 5 -16
-11 -4 -14 12 -19 12 -26 2 -6 -11 -9 -11 -14 0 -3 8 -4 2 -1 -12 4 -22 1 -28
-18 -31 -20 -4 -23 -1 -19 19 2 13 8 26 13 29 5 3 9 11 9 17 0 7 -4 6 -10 -3
-8 -13 -10 -12 -10 3 0 16 12 22 35 17 5 -1 7 2 2 6 -4 4 0 15 8 24 13 15 6
22 -73 82 -215 161 -355 260 -370 262 -9 2 -18 8 -20 14 -5 16 -72 65 -72 53z
m80 -87 c0 -17 -22 -14 -28 4 -2 7 3 12 12 12 9 0 16 -7 16 -16z m39 -3 l22
-19 -24 2 c-14 0 -23 7 -23 18 0 22 -2 22 25 -1z m324 -235 c16 -13 16 -14 1
-20 -9 -4 -19 -4 -22 -1 -3 3 1 5 8 5 9 0 7 5 -6 15 -10 8 -14 14 -9 14 6 0
18 -6 28 -13z m47 -30 c0 -2 -11 -6 -25 -8 -13 -3 -22 -1 -19 3 5 9 44 13 44
5z m-250 -36 c0 -5 -2 -10 -4 -10 -3 0 -8 5 -11 10 -3 6 -1 10 4 10 6 0 11 -4
11 -10z m285 -10 c-3 -5 -11 -10 -16 -10 -6 0 -7 5 -4 10 3 6 11 10 16 10 6 0
7 -4 4 -10z m60 -30 c3 -6 -1 -7 -9 -4 -18 7 -21 14 -7 14 6 0 13 -4 16 -10z
m76 -71 c-2 -8 -6 -32 -9 -54 -6 -55 -67 -107 -87 -75 -3 6 1 7 9 4 9 -3 16
-1 16 5 0 6 -7 11 -17 11 -21 0 -11 10 14 15 10 1 17 8 16 14 -2 6 2 11 7 11
17 0 11 52 -7 65 -16 12 -14 12 10 8 17 -3 27 -1 27 7 0 6 6 10 13 7 6 -2 10
-11 8 -18z m29 -9 c0 -5 -5 -10 -11 -10 -5 0 -7 5 -4 10 3 6 8 10 11 10 2 0 4
-4 4 -10z m-200 -50 c0 -5 -4 -10 -10 -10 -5 0 -10 5 -10 10 0 6 5 10 10 10 6
0 10 -4 10 -10z m300 -26 c0 -2 -7 -4 -15 -4 -8 0 -15 4 -15 10 0 5 7 7 15 4
8 -4 15 -8 15 -10z m-143 -56 c-3 -8 -6 -5 -6 6 -1 11 2 17 5 13 3 -3 4 -12 1
-19z m9 -27 c-4 -5 0 -12 6 -14 8 -3 6 -6 -4 -6 -18 -1 -24 10 -11 22 9 10 15
8 9 -2z"/>
<path d="M7635 7110 c3 -5 11 -10 16 -10 6 0 7 5 4 10 -3 6 -11 10 -16 10 -6
0 -7 -4 -4 -10z"/>
<path d="M7380 7091 c0 -6 15 -18 33 -26 27 -13 29 -14 12 -1 -11 9 -26 20
-32 26 -9 7 -13 7 -13 1z"/>
<path d="M7627 7089 c7 -7 15 -10 18 -7 3 3 -2 9 -12 12 -14 6 -15 5 -6 -5z"/>
<path d="M7683 7057 c-1 -30 -1 -31 8 -8 5 14 6 28 2 32 -4 4 -9 -6 -10 -24z"/>
<path d="M7491 7007 c60 -44 109 -75 109 -68 0 6 -13 18 -29 27 -17 10 -28 21
-25 26 3 4 -1 5 -9 2 -8 -3 -18 -1 -22 5 -3 6 -11 11 -17 11 -6 0 -9 -1 -7 -3z"/>
<path d="M7570 6986 c0 -2 7 -7 16 -10 8 -3 12 -2 9 4 -6 10 -25 14 -25 6z"/>
<path d="M7845 6950 c-11 -18 9 -38 30 -29 18 7 18 8 -5 9 -14 1 -19 4 -12 7
14 6 16 23 3 23 -6 0 -13 -4 -16 -10z"/>
<path d="M7645 6911 c-3 -5 0 -13 6 -17 8 -5 9 -3 4 6 -6 10 -4 12 9 7 10 -4
15 -3 11 3 -8 13 -22 13 -30 1z"/>
<path d="M7738 6913 c7 -3 16 -2 19 1 4 3 -2 6 -13 5 -11 0 -14 -3 -6 -6z"/>
<path d="M7932 6888 c-7 -7 -12 -16 -12 -21 0 -5 7 -1 16 8 9 9 14 18 12 20
-2 3 -10 -1 -16 -7z"/>
<path d="M7723 6846 c26 -24 44 -32 59 -28 20 5 20 5 -3 17 -13 7 -28 11 -35
8 -7 -2 -15 5 -19 16 -3 12 -14 21 -23 21 -12 -1 -6 -11 21 -34z"/>
<path d="M7900 6841 c0 -7 -5 -9 -12 -5 -7 5 -8 3 -3 -6 4 -7 2 -16 -6 -21
-11 -7 -11 -9 2 -9 16 0 34 38 24 49 -3 2 -5 -1 -5 -8z"/>
<path d="M7797 6818 c-10 -11 -17 -21 -15 -22 45 -33 70 -47 60 -34 -8 10 -11
21 -8 27 3 5 -4 7 -16 4 l-23 -5 23 19 c13 10 20 22 16 26 -11 10 -17 8 -37
-15z"/>
<path d="M7977 6803 c-3 -5 -1 -18 4 -30 6 -16 13 -20 30 -16 20 6 20 7 5 18
-9 7 -16 17 -16 24 0 12 -16 15 -23 4z"/>
<path d="M7945 6740 c27 -12 43 -12 25 0 -8 5 -22 9 -30 9 -10 0 -8 -3 5 -9z"/>
<path d="M8005 6719 c-10 -15 -2 -20 43 -25 33 -4 40 -1 45 16 5 18 0 20 -38
20 -24 0 -47 -5 -50 -11z"/>
<path d="M5390 6445 l0 -265 270 0 270 0 0 265 0 265 -270 0 -270 0 0 -265z"/>
<path d="M6110 6445 l0 -265 270 0 270 0 0 265 0 265 -270 0 -270 0 0 -265z"/>
<path d="M8101 6694 c0 -11 3 -14 6 -6 3 7 2 16 -1 19 -3 4 -6 -2 -5 -13z"/>
<path d="M8045 6670 c17 -7 17 -9 3 -9 -21 -1 -24 -21 -4 -21 8 0 16 -6 19
-12 2 -7 8 -9 13 -5 5 4 2 12 -6 18 -12 7 -13 11 -2 18 11 6 10 10 -3 15 -25
9 -43 6 -20 -4z"/>
<path d="M3532 6266 c-45 -35 -86 -66 -90 -70 -8 -9 29 4 43 15 16 12 123 69
129 69 3 0 5 -507 4 -1127 l-3 -1128 -2 1113 c-2 611 -6 1112 -11 1112 -4 0
-7 -528 -7 -1174 0 -646 3 -1169 7 -1163 3 5 4 17 1 26 -4 13 -3 13 5 2 6 -8
8 -20 5 -28 -3 -7 0 -13 6 -13 8 0 11 333 11 1215 0 668 -3 1215 -7 1215 -5 0
-45 -29 -91 -64z m85 -2278 c-3 -7 -5 -2 -5 12 0 14 2 19 5 13 2 -7 2 -19 0
-25z"/>
<path d="M6110 5727 l0 -267 268 2 267 3 3 262 2 262 -270 3 -270 3 0 -268z"/>
<path d="M5390 5725 l0 -265 270 0 270 0 0 265 0 265 -270 0 -270 0 0 -265z"/>
<path d="M9860 5911 c14 -11 30 -21 35 -21 11 0 -7 14 -40 31 -13 7 -12 3 5
-10z"/>
<path d="M10036 5776 c10 -8 21 -12 24 -10 5 6 -21 24 -34 24 -6 0 -1 -6 10
-14z"/>
<path d="M10130 5712 c0 -12 19 -26 26 -19 2 2 -2 10 -11 17 -9 8 -15 8 -15 2z"/>
<path d="M10197 5659 c7 -7 15 -10 18 -7 3 3 -2 9 -12 12 -14 6 -15 5 -6 -5z"/>
<path d="M10239 5637 c6 -8 7 -18 3 -22 -4 -5 -1 -5 6 -1 10 6 10 11 1 22 -6
8 -14 14 -16 14 -3 0 0 -6 6 -13z"/>
<path d="M10040 5615 c0 -2 10 -10 23 -16 20 -11 21 -11 8 4 -13 16 -31 23
-31 12z"/>
<path d="M10255 5597 l-20 -20 22 12 c28 15 31 14 29 -5 0 -9 6 -19 14 -22 12
-4 13 -3 3 10 -7 8 -11 17 -8 20 3 3 0 10 -7 15 -9 8 -19 5 -33 -10z"/>
<path d="M10338 5560 c18 -18 35 -30 38 -27 2 2 -12 17 -33 32 l-38 27 33 -32z"/>
<path d="M8352 5340 l3 -191 180 -3 c99 -1 186 0 193 2 9 3 12 51 12 193 l0
189 -195 0 -195 0 2 -190z"/>
<path d="M8870 5340 l0 -190 170 -1 c94 -1 178 -2 188 -3 16 -1 17 15 20 192
l2 192 -190 0 -190 0 0 -190z"/>
<path d="M10404 5512 c12 -14 14 -22 7 -22 -7 0 -9 -4 -6 -10 3 -5 11 -10 16
-10 6 0 8 4 5 9 -4 5 -1 11 5 13 7 2 -1 12 -17 23 l-29 18 19 -21z"/>
<path d="M10350 5515 c0 -2 10 -10 23 -16 20 -11 21 -11 8 4 -13 16 -31 23
-31 12z"/>
<path d="M10231 5477 c2 -2 20 -14 39 -26 l35 -23 -28 26 c-15 14 -33 26 -39
26 -6 0 -9 -1 -7 -3z"/>
<path d="M10495 5440 c20 -23 20 -23 0 -16 -11 4 -16 3 -11 -1 4 -4 18 -8 31
-8 19 -1 22 2 13 13 -6 7 -21 18 -32 24 l-21 11 20 -23z"/>
<path d="M10434 5429 c-3 -6 0 -18 9 -26 13 -13 14 -12 10 11 -6 29 -9 31 -19
15z"/>
<path d="M10355 5385 c17 -13 35 -24 40 -25 6 0 -3 11 -20 25 -16 13 -34 24
-40 25 -5 0 4 -11 20 -25z"/>
<path d="M10574 5368 c-4 -7 -3 -8 5 -4 6 4 19 2 27 -5 14 -12 14 -14 -3 -27
-17 -14 -17 -14 2 -8 36 13 40 11 40 -23 0 -25 7 -39 26 -53 32 -24 61 -29 74
-12 7 10 14 11 25 4 13 -9 13 -12 -3 -21 -9 -6 -15 -14 -12 -19 3 -5 1 -11 -5
-15 -16 -10 -50 5 -50 21 0 8 -10 14 -22 14 l-22 0 22 -16 c12 -8 22 -20 22
-25 0 -6 6 -17 14 -25 13 -12 16 -12 28 4 7 10 25 22 40 26 23 5 26 4 21 -11
-7 -17 -6 -17 11 0 9 9 19 17 22 17 2 0 0 -8 -6 -17 -5 -10 -14 -30 -20 -46
-8 -23 -13 -27 -36 -21 -19 5 -25 4 -20 -5 4 -6 13 -11 21 -11 7 0 16 -6 18
-12 3 -8 6 -6 6 5 1 21 8 22 27 2 22 -22 37 -18 31 8 -7 24 5 51 23 53 21 3
22 4 10 18 -6 8 -18 12 -26 9 -8 -3 -14 -1 -12 4 4 12 -34 44 -142 118 -47 33
-91 65 -98 72 -17 16 -29 17 -38 1z m106 -77 c0 -12 -20 -25 -27 -18 -7 7 6
27 18 27 5 0 9 -4 9 -9z m30 -12 c0 -5 3 -8 8 -6 4 3 12 -1 19 -8 10 -10 9
-14 -3 -19 -25 -10 -34 -7 -28 9 4 8 2 15 -4 15 -6 0 -12 -6 -15 -12 -2 -7 -8
-10 -12 -6 -4 4 -1 14 6 22 16 18 29 20 29 5z m115 -79 c3 -5 2 -10 -4 -10 -5
0 -13 5 -16 10 -3 6 -2 10 4 10 5 0 13 -4 16 -10z"/>
<path d="M10520 5355 c7 -8 19 -15 26 -15 8 0 14 7 14 15 0 10 -10 15 -26 15
-22 0 -25 -2 -14 -15z"/>
<path d="M10440 5325 c0 -2 14 -11 30 -20 l30 -16 0 -1279 0 -1279 33 -10 c43
-13 95 -31 132 -47 17 -7 33 -10 37 -6 4 4 12 552 17 1218 6 665 12 1216 16
1224 5 14 -17 32 -77 65 -10 5 -18 13 -18 17 0 5 -5 8 -10 8 -14 0 -110 63
-110 73 0 15 29 6 34 -10 4 -14 4 -13 3 2 -2 14 -10 20 -26 19 -16 -1 -21 4
-18 16 3 13 -1 16 -18 12 -13 -2 -26 1 -29 7 -7 11 -26 15 -26 6z m100 -127
c0 -5 -4 -7 -9 -3 -5 3 -12 -5 -14 -17 -3 -17 -5 -15 -6 9 -1 25 2 31 14 27 8
-4 15 -10 15 -16z m-2 -1676 c-2 -508 0 -773 7 -776 6 -2 7 -7 2 -12 -4 -4
-15 0 -24 9 -10 9 -13 17 -8 17 7 0 9 403 7 1112 -2 612 0 1156 5 1208 10 120
14 -477 11 -1558z m119 -584 c-2 -13 -4 -3 -4 22 0 25 2 35 4 23 2 -13 2 -33
0 -45z m-100 -80 c-2 -13 -4 -3 -4 22 0 25 2 35 4 23 2 -13 2 -33 0 -45z m88
-118 c3 -6 -1 -7 -9 -4 -18 7 -21 14 -7 14 6 0 13 -4 16 -10z"/>
<path d="M10750 5151 c0 -5 11 -16 25 -25 30 -20 32 -13 5 14 -22 22 -30 25
-30 11z"/>
<path d="M10896 5131 c-19 -21 -21 -35 -3 -26 6 4 4 0 -5 -8 -10 -8 -15 -17
-11 -20 3 -4 0 -7 -7 -7 -11 0 -11 -3 -2 -12 24 -24 11 -29 -19 -8 -44 32 -46
17 -2 -17 97 -76 173 -122 190 -117 13 4 14 3 5 -3 -15 -11 -11 -16 58 -62 24
-16 51 -27 59 -24 12 4 13 3 3 -5 -10 -7 -7 -13 12 -26 l26 -16 0 80 c0 70 -9
97 -23 73 -2 -5 -2 -3 -1 4 2 7 -24 33 -57 58 -61 47 -75 54 -63 33 4 -8 3
-10 -2 -5 -5 5 -9 12 -9 17 0 5 -30 31 -66 59 -63 47 -68 49 -83 32z m49 -21
c31 -19 32 -23 24 -57 -7 -35 -1 -62 8 -35 5 14 23 16 23 3 0 -13 -34 -23 -53
-16 -8 4 -17 16 -20 28 -3 12 -9 33 -13 46 -6 21 -5 22 14 12 36 -19 37 -12 2
14 -41 30 -31 33 15 5z m95 -100 c0 -5 -4 -10 -10 -10 -5 0 -10 5 -10 10 0 6
5 10 10 10 6 0 10 -4 10 -10z m-53 -37 c5 -15 -33 -5 -47 12 -9 11 -6 12 16 6
15 -4 29 -12 31 -18z m163 -13 c8 -5 12 -11 10 -14 -3 -2 -14 2 -24 10 -22 15
-10 19 14 4z m-125 -10 c3 -6 -1 -7 -9 -4 -18 7 -21 14 -7 14 6 0 13 -4 16
-10z m120 -20 c3 -6 -1 -7 -9 -4 -18 7 -21 14 -7 14 6 0 13 -4 16 -10z m-29
-32 c0 -12 -4 -14 -18 -7 -27 15 -30 27 -5 25 14 0 23 -7 23 -18z"/>
<path d="M8356 5012 c-3 -3 -6 -90 -6 -194 l0 -188 195 0 195 0 0 189 c0 167
-2 190 -17 195 -20 8 -359 7 -367 -2z"/>
<path d="M8870 4825 l0 -195 190 0 190 0 0 195 0 195 -190 0 -190 0 0 -195z"/>
</g>
</svg>
